<?xml version="1.0" standalone="no"?>
<svg width="100%" height="100%" viewBox="-10 -10 20 20" xmlns="http://www.w3.org/2000/svg">
<metadata>
Taken from Cadastra Symbol-Font (Swisstopo)
Created 2006/2007/2008 by Atelier Ursula Heilig SGD, SVG conversion 2009-05 by Andreas Neumann
</metadata>
<title>Rohrleitungen Signalpunkt, character l</title>
<path fill="black" d="M 1.1926647,-6.6411322 L 0.30358743,-6.6411322 L 0.30358743,-2.1090063 C 1.3227736,-1.9572126 2.1251117,-1.0681352 2.1251117,-0.005579402 C 2.1251117,1.1654004 1.1709799,2.1195321 5.9999999e-08,2.1195321 C -1.1709799,2.1195321 -2.1251117,1.1654004 -2.1251117,-0.005579402 C -2.1251117,-1.0681352 -1.3444584,-1.9572126 -0.30358731,-2.1090063 L -0.30358731,-6.6411322 L -1.1926647,-6.6411322 L 5.9999999e-08,-10.023963 L 1.1926647,-6.6411322 z M -1.5179368,-0.005579402 C -1.5179368,0.84012823 -0.84570764,1.5123573 5.9999999e-08,1.5123573 C 0.8457077,1.5123573 1.5179368,0.84012823 1.5179368,-0.005579402 C 1.5179368,-0.85128707 0.8457077,-1.5235164 5.9999999e-08,-1.5235164 C -0.84570764,-1.5235164 -1.5179368,-0.85128707 -1.5179368,-0.005579402 z" />
</svg>
