<?xml version="1.0" standalone="no"?>
<svg width="100%" height="100%" viewBox="-10 -10 20 20" xmlns="http://www.w3.org/2000/svg">
<metadata>
Taken from Cadastra Symbol-Font (Swisstopo)
Created 2006/2007/2008 by Atelier Ursula Heilig SGD, SVG conversion 2009-05 by Andreas Neumann
</metadata>
<title>Grenzpunkt Kreuz, character H</title>
<circle fill="white" stroke="none" r="2" />
<path fill="black" stroke="none" d="M 2.64375,0 C 2.64375,-0.525 2.49375,-1.0125 2.19375,-1.425 L 4.81875,-4.05 C 4.59375,-4.3125 4.36875,-4.575 4.10625,-4.8 L 1.48125,-2.175 C 1.06875,-2.4375 0.54375,-2.625 0.01875,-2.625 C -0.50625,-2.625 -1.03125,-2.475 -1.44375,-2.175 L -4.06875,-4.8 C -4.33125,-4.575 -4.59375,-4.3125 -4.81875,-4.05 L -2.19375,-1.425 C -2.45625,-1.0125 -2.60625,-0.525 -2.60625,0 C -2.60625,0.525 -2.45625,1.05 -2.15625,1.4625 L -4.78125,4.0875 C -4.55625,4.35 -4.33125,4.575 -4.06875,4.8 L -1.44375,2.175 C -1.03125,2.475 -0.50625,2.625 0.01875,2.625 C 0.54375,2.625 1.03125,2.4375 1.44375,2.175 L 4.06875,4.8 C 4.33125,4.575 4.59375,4.3125 4.81875,4.05 L 2.19375,1.425 C 2.45625,1.0125 2.64375,0.525 2.64375,0 z M -1.55625,0 C -1.55625,-0.8625 -0.84375,-1.575 0.01875,-1.575 C 0.91875,-1.575 1.59375,-0.8625 1.59375,0 C 1.59375,0.8625 0.91875,1.575 0.01875,1.575 C -0.84375,1.575 -1.55625,0.8625 -1.55625,0 z" />
</svg>
