<?xml version="1.0" standalone="no"?>
<svg width="100%" height="100%" viewBox="-10 -10 20 20" xmlns="http://www.w3.org/2000/svg">
<metadata>
Taken from Cadastra Symbol-Font (Swisstopo)
Created 2006/2007/2008 by Atelier Ursula Heilig SGD, SVG conversion 2009-05 by Andreas Neumann
</metadata>
<title>Wasserbecken, stehendes Gewässer, character e</title>
<path fill="black" stroke="none" stroke-width="0" d="M 4.8573676,-1.3700391 C 7.4119832,-1.3700391 9.3549303,-3.2050447 9.3909108,-3.2050447 L 10.07454,-2.4854346 C 9.9665991,-2.3774931 7.8077687,-0.36258503 4.8573676,-0.36258503 C 2.5546155,-0.36258503 0.71960997,-1.4060196 -5.9999999e-08,-1.8737661 C -0.71961009,-1.4060196 -2.5546157,-0.36258503 -4.8573678,-0.36258503 C -7.8077689,-0.36258503 -9.966599,-2.3774931 -10.07454,-2.4854346 L -9.390911,-3.2050447 C -9.3549305,-3.2050447 -7.4119834,-1.3700391 -4.8573678,-1.3700391 C -2.3027522,-1.3700391 -0.32382457,-2.8812201 -0.32382457,-2.8812201 L -5.9999999e-08,-3.1330837 L 0.32382445,-2.8812201 C 0.32382445,-2.8812201 2.302752,-1.3700391 4.8573676,-1.3700391 z M 4.8573676,3.1275236 C 7.4119832,3.1275236 9.3549303,1.3284985 9.3909108,1.292518 C 9.9665991,1.9041866 10.002579,1.9761476 10.002579,2.0840891 C 9.6067938,2.4079136 7.5918857,4.1349777 4.8573676,4.1349777 C 2.5546155,4.1349777 0.71960997,3.0915431 -5.9999999e-08,2.6237966 C -0.71961009,3.0915431 -2.5546157,4.1349777 -4.8573678,4.1349777 C -7.6638469,4.1349777 -9.606794,2.3719331 -10.07454,2.0481086 L -9.390911,1.292518 C -9.3549305,1.3284985 -7.4119834,3.1275236 -4.8573678,3.1275236 C -2.3027522,3.1275236 -0.32382457,1.6523231 -0.32382457,1.6163426 L -5.9999999e-08,1.4004595 L 0.32382445,1.6163426 C 0.32382445,1.6523231 2.302752,3.1275236 4.8573676,3.1275236 z" />
</svg>
