<?xml version="1.0" standalone="no"?>
<svg width="100%" height="100%" viewBox="-10 -10 20 20" xmlns="http://www.w3.org/2000/svg">
<metadata>
Taken from Cadastra Symbol-Font (Swisstopo)
Created 2006/2007/2008 by Atelier Ursula Heilig SGD, SVG conversion 2009-05 by Andreas Neumann
</metadata>
<title>Geröll, character 2</title>
<path fill="black" d="M 3.8396742,-3.8092006 L 4.2256732,-4.9468819 L 4.6116722,-5.3938281 L 5.7290378,-4.784356 L 6.7245089,-3.5044646 L 6.2166154,-2.5902564 L 5.4649332,-2.3058361 L 4.3475677,-2.854361 L 3.8396742,-3.8092006 z M -7.9231373,-0.90405028 L -8.4716622,0.17268376 L -8.5122937,0.76184013 L -7.2933495,1.1072077 L -5.6884063,0.90405028 L -5.403986,-0.091420815 L -5.7290378,-0.82278734 L -6.9073505,-1.2291021 L -7.9231373,-0.90405028 z M -6.2572469,-6.9987713 L -6.175984,-8.3192942 L -6.3791413,-8.9084506 L -7.638717,-8.7256089 L -9.0405028,-7.8520322 L -8.8982927,-6.7346667 L -8.3091363,-6.1455104 L -7.0698764,-6.247089 L -6.2572469,-6.9987713 z M -8.9998714,7.7707693 L -8.0856632,6.2877205 L -7.1917708,6.2877205 L -6.2369312,6.8362454 L -6.2369312,8.1161368 L -6.947982,8.8678191 L -7.6996642,9.0100292 L -8.1669262,8.5224516 L -8.9998714,7.7707693 z M 1.157997,3.5247803 L 1.3205229,5.4954068 L 0.56884063,6.0439317 L -0.46726194,6.1658261 L -1.2189442,5.0078291 L -1.0970498,3.8498321 L -0.56884063,3.24036 L 1.157997,3.5247803 z M -3.3724123,-2.8949925 L -3.5146225,-4.8046717 L -2.8238874,-5.3125652 L -1.848732,-5.4344596 L -1.157997,-4.3374098 L -1.2798914,-3.2200443 L -1.7674691,-2.6308879 L -3.3724123,-2.8949925 z M 7.1105079,4.5405672 L 6.9682977,2.6308879 L 7.6590327,2.1229945 L 8.6341881,2.0011001 L 9.3249232,3.0981499 L 9.2030287,4.2155154 L 8.7154511,4.8046717 L 7.1105079,4.5405672 z M 8.3700835,-6.1861418 L 8.2481891,-6.5315094 L 8.1466104,-6.6534038 L 7.8012429,-6.4705622 L 7.4965069,-6.0845632 L 7.6590327,-5.8204586 L 7.8825059,-5.7391956 L 8.2278734,-5.8814058 L 8.3700835,-6.1861418 z M -3.9412529,-8.8678191 L -3.3520966,-8.8068719 L -3.1895707,-9.0709765 L -3.1489392,-9.416344 L -3.4943067,-9.6804486 L -3.8396742,-9.6398171 L -4.0225159,-9.4569755 L -3.9412529,-8.8678191 z M -3.2302021,8.4818201 L -3.2505179,8.1364526 L -3.1895707,7.9942424 L -2.7629402,7.9942424 L -2.4582041,8.258347 L -2.4988356,8.5427673 L -2.6613615,8.6849775 L -3.3520966,8.6849775 L -3.2302021,8.4818201 z M -8.7763983,-3.8092006 L -8.6138724,-3.4841489 L -8.5935566,-3.321623 L -8.9592399,-3.1997285 L -9.4468176,-3.2606757 L -9.5280805,-3.5654118 L -9.4265018,-3.7888849 L -9.0811343,-3.9107793 L -8.7763983,-3.8092006 z M -8.5935566,4.3577255 L -8.4310307,4.6827773 L -8.410715,4.8656189 L -8.7763983,4.9671976 L -9.263976,4.9062504 L -9.3452389,4.6015144 L -9.2436602,4.3780413 L -8.6138724,4.2561468 L -8.5935566,4.3577255 z M -4.6116722,4.2561468 L -4.8960926,3.7888849 L -5.1601971,3.8092006 L -5.4446174,3.9717265 L -5.4446174,4.3577255 L -5.2414601,4.5811986 L -5.017987,4.6827773 L -4.6116722,4.2561468 z M 5.4446174,-0.1929995 L 5.1601971,-0.66026144 L 4.8960926,-0.63994571 L 4.6116722,-0.47741981 L 4.6116722,-0.091420815 L 4.8148296,0.13205229 L 5.0586184,0.17268376 L 5.4446174,-0.1929995 z M 1.9706265,9.4976069 L 1.6862061,9.030345 L 1.4221016,9.0506607 L 1.1376813,9.2131866 L 1.1376813,9.5991856 L 1.3408386,9.8226587 L 1.5846275,9.8632902 L 1.9706265,9.4976069 z M 0.87357668,-0.8024716 L 0.58915637,-1.2697335 L 0.32505179,-1.2494178 L 0.040631473,-1.0868919 L 0.040631473,-0.70089292 L 0.24378884,-0.47741981 L 0.48757768,-0.43678834 L 0.87357668,-0.8024716 z M 9.5280805,-0.92436602 L 9.2436602,-1.391628 L 8.9795556,-1.3713122 L 8.6951353,-1.2087863 L 8.6951353,-0.82278734 L 8.8982927,-0.59931423 L 9.1420815,-0.55868276 L 9.5280805,-0.92436602 z M 9.4061861,-9.3960282 L 9.1217658,-9.8632902 L 8.8576612,-9.8429744 L 8.5732409,-9.6804486 L 8.5732409,-9.2944496 L 8.7763983,-9.0709765 L 9.2436602,-9.030345 L 9.4061861,-9.3960282 z M 3.0676762,1.8182584 L 2.7832559,1.3509965 L 2.5191514,1.3713122 L 2.234731,1.5338381 L 2.234731,1.9198371 L 2.4378884,2.1433102 L 2.6816772,2.1839417 L 3.0676762,1.8182584 z M 7.5777698,7.7301378 L 7.2933495,7.2628759 L 7.0292449,7.2831916 L 6.7448246,7.4457175 L 6.7448246,7.8317165 L 6.947982,8.0551896 L 7.1917708,8.0958211 L 7.5777698,7.7301378 z M 5.017987,5.0484606 L 4.7335667,4.5811986 L 4.4694621,4.6015144 L 4.1850418,4.7640403 L 4.1850418,5.1500393 L 4.3881991,5.3735124 L 4.631988,5.4141438 L 5.017987,5.0484606 z M -3.3317808,-0.23363097 L -3.3724123,0.35552539 L -3.1489392,0.51805129 L -2.8442031,0.55868276 L -2.6410458,0.21331524 L -2.6410458,-0.13205229 L -2.8035717,-0.31489392 L -3.3317808,-0.23363097 z M 4.7538824,-8.3396099 L 4.7945139,-8.9084506 L 4.5913565,-9.0709765 L 4.2866205,-9.0912922 L 4.0834631,-8.7662404 L 4.1240946,-8.4411886 L 4.2663047,-8.258347 L 4.7538824,-8.3396099 z M 0.020315737,-7.7707693 L -0.12189442,-8.6240302 L 0.385999,-9.1522394 L 1.4830488,-8.949082 L 2.0925209,-8.6240302 L 1.9706265,-7.5066647 L 1.4830488,-6.9175084 L 0.87357668,-7.0394028 L 0.020315737,-7.7707693 z" />
</svg>
