<?xml version="1.0" standalone="no"?>
<svg width="100%" height="100%" viewBox="-10 -10 20 20" xmlns="http://www.w3.org/2000/svg">
<metadata>
Taken from Cadastra Symbol-Font (Swisstopo)
Created 2006/2007/2008 by Atelier Ursula Heilig SGD, SVG conversion 2009-05 by Andreas Neumann
</metadata>
<title>Reben, character b, gray</title>
<path fill="rgb(100,100,100)" stroke="none" stroke-width="0" d="M 3.1487109,-0.75000002 C 3.9737109,-1.3875 4.3862109,-2.1 4.3862109,-2.925 C 4.3862109,-4.8375 2.3612109,-5.8125 0.78621093,-6.5625 L 0.48621093,-6.7125 L 0.48621093,-7.875 L -0.56378907,-7.875 L -0.56378907,-7.35 C -0.78878907,-7.5 -0.97628907,-7.6875 -1.1262891,-7.875 L -2.3262891,-7.875 C -2.0262891,-7.0875 -1.3137891,-6.5625 -0.56378907,-6.075 L -0.56378907,-0.03750002 C -2.3262891,0.82499998 -3.3012891,1.6875 -3.3012891,3 C -3.3012891,4.7625 -1.9137891,5.625 -0.67628907,6.4125 L -0.56378907,6.4875 L -0.56378907,7.875 L 0.48621093,7.875 L 0.48621093,7.2 C 0.74871093,7.425 0.97371093,7.65 1.1237109,7.875 L 2.2862109,7.875 C 1.9862109,7.0125 1.2737109,6.4125 0.48621093,5.925 L 0.48621093,0.63749998 C 1.3862109,0.33749998 2.4362109,-0.26250002 3.1487109,-0.75000002 z M -2.2512891,3 C -2.2512891,2.2125 -1.5387891,1.65 -0.56378907,1.125 L -0.56378907,5.25 C -1.5012891,4.65 -2.2512891,4.05 -2.2512891,3 z M 0.67371093,-5.4375 C 2.0612109,-4.725 3.3362109,-4.0875 3.3362109,-2.925 C 3.3362109,-1.8375 1.9862109,-1.2 0.48621093,-0.52500002 L 0.48621093,-5.5125 C 0.56121093,-5.475 0.63621093,-5.4375 0.67371093,-5.4375 z" />
</svg>
