<?xml version="1.0" standalone="no"?>
<svg width="100%" height="100%" viewBox="-10 -10 20 20" xmlns="http://www.w3.org/2000/svg">
<metadata>
Taken from Cadastra Symbol-Font (Swisstopo)
Created 2006/2007/2008 by Atelier Ursula Heilig SGD, SVG conversion 2009-05 by Andreas Neumann
</metadata>
<title>Hoheitsgrenzpunkt auf Kreuz, character S</title>
<path fill="black" d="M -9.45,0 C -9.45,5.2125 -5.2125,9.45 0,9.45 C 5.2125,9.45 9.45,5.2125 9.45,0 C 9.45,-5.2125 5.2125,-9.45 0,-9.45 C -5.2125,-9.45 -9.45,-5.2125 -9.45,0 z M -8.4,0 C -8.4,-4.6125 -4.6125,-8.4 0,-8.4 C 4.6125,-8.4 8.4,-4.6125 8.4,0 C 8.4,4.6125 4.6125,8.4 0,8.4 C -4.6125,8.4 -8.4,4.6125 -8.4,0 z M 2.625,0 C 2.625,-0.525 2.475,-1.0125 2.175,-1.425 L 4.8,-4.05 C 4.575,-4.3125 4.35,-4.575 4.0875,-4.8 L 1.4625,-2.175 C 1.05,-2.4375 0.525,-2.625 0,-2.625 C -0.525,-2.625 -1.05,-2.475 -1.4625,-2.175 L -4.0875,-4.8 C -4.35,-4.575 -4.6125,-4.3125 -4.8375,-4.05 L -2.2125,-1.425 C -2.475,-1.0125 -2.625,-0.525 -2.625,0 C -2.625,0.525 -2.475,1.05 -2.175,1.4625 L -4.8,4.0875 C -4.575,4.35 -4.35,4.575 -4.0875,4.8 L -1.4625,2.175 C -1.05,2.475 -0.525,2.625 0,2.625 C 0.525,2.625 1.0125,2.4375 1.425,2.175 L 4.05,4.8 C 4.3125,4.575 4.575,4.3125 4.8,4.05 L 2.175,1.425 C 2.4375,1.0125 2.625,0.525 2.625,0 z M -1.575,0 C -1.575,-0.8625 -0.8625,-1.575 0,-1.575 C 0.9,-1.575 1.575,-0.8625 1.575,0 C 1.575,0.8625 0.9,1.575 0,1.575 C -0.8625,1.575 -1.575,0.8625 -1.575,0 z" />
</svg>
