<?xml version="1.0" standalone="no"?>
<svg width="100%" height="100%" viewBox="-10 -10 20 20" xmlns="http://www.w3.org/2000/svg">
<metadata>
Taken from Cadastra Symbol-Font (Swisstopo)
Created 2006/2007/2008 by Atelier Ursula Heilig SGD, SVG conversion 2009-05 by Andreas Neumann
</metadata>
<title>Lagefixpunkt 1 und 2 begehbar, character A</title>
<path fill="white" stroke="none" d="M-10 6 h 20 l-10,-17" />
<path fill="black" stroke="none" d="M -5.9999997e-08,-10.051431 L 8.8121212,5.1021871 L -8.8121212,5.1021871 L -5.9999997e-08,-10.051431 z M -5.9999997e-08,-7.8643112 L -6.9238095,4.008627 L 6.8844697,4.008627 L -5.9999997e-08,-7.8643112 z M -2.7537884,0.18116656 C -2.7537884,-1.3420063 -1.5342536,-2.5527335 -5.9999997e-08,-2.5527335 C 1.534253,-2.5527335 2.7537876,-1.3420063 2.7537876,0.18116656 C 2.7537876,1.7043397 1.534253,2.9150669 -5.9999997e-08,2.9150669 C -1.5342536,2.9150669 -2.7537884,1.7043397 -2.7537884,0.18116656 z M -1.6522729,0.18116656 C -1.6522729,1.0794481 -0.90481634,1.8215069 -5.9999997e-08,1.8215069 C 0.90481584,1.8215069 1.6522725,1.0794481 1.6522725,0.18116656 C 1.6522725,-0.71711494 0.90481584,-1.4591735 -5.9999997e-08,-1.4591735 C -0.90481634,-1.4591735 -1.6522729,-0.71711494 -1.6522729,0.18116656 z" />
</svg>
