<?xml version="1.0" standalone="no"?>
<svg width="100%" height="100%" viewBox="-10 -10 20 20" xmlns="http://www.w3.org/2000/svg">
<metadata>
Taken from Cadastra Symbol-Font (Swisstopo)
Created 2006/2007/2008 by Atelier Ursula Heilig SGD, SVG conversion 2009-05 by Andreas Neumann
</metadata>
<title>Grotte, Höhleneingang, character f</title>
<path fill="black" d="M -9.8523838,0.1534508 C -9.8523838,-5.2794352 -5.4610356,-9.6989332 -0.028149668,-9.6989332 C 5.4047363,-9.6989332 9.8523838,-5.2794352 9.8523838,0.1534508 C 9.8523838,1.8987302 9.4019891,3.5877103 8.5574991,5.0796427 C 8.3323017,5.473738 7.9100567,5.6989352 7.4878117,5.6989352 C 7.290764,5.6989352 7.0655667,5.6426359 6.868519,5.5300372 C 6.4744236,5.30484 6.2492263,4.882595 6.2492263,4.46035 C 6.2492263,4.2633023 6.3055256,4.0381049 6.4181243,3.8410573 C 7.0655667,2.7150705 7.4033627,1.4483355 7.4033627,0.1534508 C 7.4033627,-3.9001014 4.0535522,-7.2217623 -0.028149668,-7.2217623 C -4.0817019,-7.2217623 -7.4033627,-3.9001014 -7.4033627,0.1534508 C -7.4033627,1.4483355 -7.0655667,2.7150705 -6.4181243,3.8410573 C -6.3055256,4.0381049 -6.2492263,4.2633023 -6.2492263,4.46035 C -6.2492263,4.882595 -6.4744236,5.30484 -6.868519,5.5300372 C -7.0655667,5.6426359 -7.290764,5.6989352 -7.4878117,5.6989352 C -7.9100567,5.6989352 -8.3323017,5.473738 -8.5574991,5.0796427 C -9.4019891,3.5877103 -9.8523838,1.8987302 -9.8523838,0.1534508 z" />
</svg>
