<?xml version="1.0" standalone="no"?>
<svg width="100%" height="100%" viewBox="-10 -10 20 20" xmlns="http://www.w3.org/2000/svg">
<metadata>
Taken from Cadastra Symbol-Font (Swisstopo)
Created 2006/2007/2008 by Atelier Ursula Heilig SGD, SVG conversion 2009-05 by Andreas Neumann
</metadata>
<title>Lagefixpunkt 3 auf Rohr oder Pfahl, character L</title>
<circle fill="white" stroke="none" r="8" />
<path fill="black" stroke="none" d="M -6.825,0 C -6.825,3.7875 -3.7875,6.825 0,6.825 C 3.7875,6.825 6.825,3.7875 6.825,0 C 6.825,-3.7875 3.7875,-6.825 0,-6.825 C -3.7875,-6.825 -6.825,-3.7875 -6.825,0 z M -5.775,0 C -5.775,-3.1875 -3.1875,-5.775 0,-5.775 C 3.1875,-5.775 5.775,-3.1875 5.775,0 C 5.775,3.1875 3.1875,5.775 0,5.775 C -3.1875,5.775 -5.775,3.1875 -5.775,0 z M -2.625,0 C -2.625,1.4625 -1.4625,2.625 0,2.625 C 1.4625,2.625 2.625,1.4625 2.625,0 C 2.625,-1.4625 1.4625,-2.625 0,-2.625 C -1.4625,-2.625 -2.625,-1.4625 -2.625,0 z M -1.575,0 C -1.575,-0.8625 -0.8625,-1.575 0,-1.575 C 0.8625,-1.575 1.575,-0.8625 1.575,0 C 1.575,0.8625 0.8625,1.575 0,1.575 C -0.8625,1.575 -1.575,0.8625 -1.575,0 z" />
</svg>
