<?xml version="1.0" standalone="no"?>
<svg width="100%" height="100%" viewBox="-10 -10 20 20" xmlns="http://www.w3.org/2000/svg">
<metadata>
Taken from Cadastra Symbol-Font (Swisstopo)
Created 2006/2007/2008 by Atelier Ursula Heilig SGD, SVG conversion 2009-05 by Andreas Neumann
</metadata>
<title>Symbol, character w</title>
<path fill="black" d="M 9.8008246,1.9741412 C 9.8008246,0.75122185 9.1369542,-0.33193524 8.1586187,-0.92592461 C 8.7526081,-1.6596762 9.0670731,-2.5681305 9.0670731,-3.5814065 C 9.0670731,-6.0272451 7.0754616,-8.0188565 4.6645636,-8.0188565 C 3.7910498,-8.0188565 2.9524766,-7.7742727 2.218725,-7.285105 C 1.2753301,-8.6477865 -0.19217303,-9.5213002 -1.9741412,-9.5213002 C -4.7693853,-9.5213002 -7.0754616,-7.2152239 -7.0754616,-4.4199797 C -7.0754616,-4.1404553 -7.0405211,-3.8958715 -7.0055805,-3.6163471 C -8.6477865,-3.232001 -9.8008246,-1.7644978 -9.8008246,-0.052410827 C -9.8008246,1.6247356 -8.6477865,3.0572982 -7.1104022,3.5115254 C -7.285105,4.0006931 -7.3899266,4.4898608 -7.3899266,5.0139691 C -7.3899266,7.3899266 -5.5031368,9.2767164 -3.1271793,9.2767164 C -2.0440223,9.2767164 -1.1006274,8.9273109 -0.36687579,8.2634404 C 0.43675689,9.1020136 1.4500329,9.5213002 2.6729522,9.5213002 C 5.0139691,9.5213002 6.97064,7.669451 6.97064,5.3284341 C 8.6128459,5.0489097 9.8008246,3.6512876 9.8008246,1.9741412 z M 7.5995699,-3.5814065 C 7.5995699,-2.4982494 6.5164128,-1.1705085 5.0139691,-0.15723248 C 6.8308778,0.017470276 8.3333215,0.92592461 8.3333215,1.9741412 C 8.3333215,3.0572982 7.4248672,3.8958715 6.4115912,3.8958715 C 6.271829,3.8958715 5.7826612,3.8609309 5.2236124,3.6862282 C 5.4681963,4.4199797 5.5031368,4.9790286 5.5031368,5.2236124 C 5.5031368,6.7609967 4.2103364,8.0537971 2.6729522,8.0537971 C 1.5548545,8.0537971 0.40181634,7.1453427 -0.19217303,5.7826612 C -0.99580571,7.0055805 -2.0440223,7.8092132 -3.1271793,7.8092132 C -4.6645636,7.8092132 -5.9224235,6.5513534 -5.9224235,5.0139691 C -5.9224235,4.2103364 -5.6778396,3.2669415 -4.3850392,2.0440223 C -4.7693853,2.1837845 -5.1886719,2.2536656 -5.642899,2.2536656 C -7.0055805,2.2536656 -8.3333215,1.519914 -8.3333215,-0.052410827 C -8.3333215,-1.2753301 -7.3200455,-2.2536656 -6.0971262,-2.2536656 C -5.5730179,-2.2536656 -5.1886719,-2.1488439 -4.8043258,-1.9741412 C -5.3633746,-2.8476549 -5.6079585,-3.9657526 -5.6079585,-4.4199797 C -5.6079585,-6.4115912 -3.9657526,-8.0537971 -1.9741412,-8.0537971 C -0.29699469,-8.0537971 0.99580571,-6.656175 1.7994384,-4.6995042 C 2.6030711,-5.7826612 3.6862282,-6.5513534 4.6645636,-6.5513534 C 6.271829,-6.5513534 7.5995699,-5.258553 7.5995699,-3.5814065 z M 1.7295573,0.017470276 C 1.7295573,-0.96086516 0.96086516,-1.7295573 0.017470276,-1.7295573 C -0.96086516,-1.7295573 -1.7295573,-0.96086516 -1.7295573,0.017470276 C -1.7295573,0.99580571 -0.96086516,1.7295573 0.017470276,1.7295573 C 0.96086516,1.7295573 1.7295573,0.99580571 1.7295573,0.017470276 z" />
</svg>
