<?xml version="1.0" standalone="no"?>
<svg width="100%" height="100%" viewBox="-10 -10 20 20" xmlns="http://www.w3.org/2000/svg">
<metadata>
Taken from Cadastra Symbol-Font (Swisstopo)
Created 2006/2007/2008 by Atelier Ursula Heilig SGD, SVG conversion 2009-05 by Andreas Neumann
</metadata>
<title>Lagefixpunkt 3 nicht begehbar oder 2 deklasiert, character O</title>
<circle fill="white" stroke="none" r="11" />
<path fill="black" stroke="none" d="M 8.925,0.20625 L 9.975,-0.28125 C 9.975,4.25625 7.7625,8.00625 3.75,9.61875 L 3.75,8.45625 C 5.2875,7.74375 6.6,6.58125 7.5,5.19375 L -7.5375,5.19375 C -6.6375,6.61875 -5.325,7.74375 -3.75,8.45625 L -3.75,9.61875 C -7.3875,8.11875 -9.975,4.55625 -9.975,0.35625 L -9.975,-0.28125 L -8.925,0.35625 C -8.925,1.81875 -8.5875,3.20625 -7.95,4.40625 L -0.4875,-8.56875 C -2.475,-8.45625 -4.275,-7.74375 -5.7,-6.54375 C -5.7375,-6.54375 -6.7125,-7.03125 -6.7125,-7.03125 C -4.95,-8.64375 -2.5875,-9.61875 0,-9.61875 C 2.5875,-9.61875 4.95,-8.64375 6.7125,-7.03125 C 6.7125,-7.03125 5.6625,-6.58125 5.6625,-6.54375 C 4.2375,-7.70625 2.4375,-8.45625 0.45,-8.56875 L 7.95,4.40625 C 8.5875,3.16875 8.925,1.74375 8.925,0.20625 z M -6.6,4.14375 L 6.5625,4.14375 L 0,-7.25625 L -6.6,4.14375 z M -2.625,0.35625 C -2.625,-1.10625 -1.4625,-2.26875 0,-2.26875 C 1.4625,-2.26875 2.625,-1.10625 2.625,0.35625 C 2.625,1.81875 1.4625,2.98125 0,2.98125 C -1.4625,2.98125 -2.625,1.81875 -2.625,0.35625 z M -1.575,0.35625 C -1.575,1.21875 -0.8625,1.93125 0,1.93125 C 0.8625,1.93125 1.575,1.21875 1.575,0.35625 C 1.575,-0.50625 0.8625,-1.21875 0,-1.21875 C -0.8625,-1.21875 -1.575,-0.50625 -1.575,0.35625 z" />
</svg>
