<?xml version="1.0" standalone="no"?>
<svg width="100%" height="100%" viewBox="-10 -10 20 20" xmlns="http://www.w3.org/2000/svg">
<metadata>
Taken from Cadastra Symbol-Font (Swisstopo)
Created 2006/2007/2008 by Atelier Ursula Heilig SGD, SVG conversion 2009-05 by Andreas Neumann
</metadata>
<title>Hoheitsgrenzstein auf Markstein oder Kunststoffzeichen, character P</title>
<path fill="black" d="M -9.45,0 C -9.45,5.2125 -5.2125,9.45 0,9.45 C 5.2125,9.45 9.45,5.2125 9.45,0 C 9.45,-5.2125 5.2125,-9.45 0,-9.45 C -5.2125,-9.45 -9.45,-5.2125 -9.45,0 z M -8.4,0 C -8.4,-4.6125 -4.6125,-8.4 0,-8.4 C 4.6125,-8.4 8.4,-4.6125 8.4,0 C 8.4,4.6125 4.6125,8.4 0,8.4 C -4.6125,8.4 -8.4,4.6125 -8.4,0 z M -4.2,0 C -4.2,2.325 -2.325,4.2 0,4.2 C 2.325,4.2 4.2,2.325 4.2,0 C 4.2,-2.325 2.325,-4.2 0,-4.2 C -2.325,-4.2 -4.2,-2.325 -4.2,0 z M -3.15,0 C -3.15,-1.725 -1.725,-3.15 0,-3.15 C 1.725,-3.15 3.15,-1.725 3.15,0 C 3.15,1.725 1.725,3.15 0,3.15 C -1.725,3.15 -3.15,1.725 -3.15,0 z" />
</svg>
