<?xml version="1.0" standalone="no"?>
<svg width="100%" height="100%" viewBox="-10 -10 20 20" xmlns="http://www.w3.org/2000/svg">
<metadata>
Taken from Cadastra Symbol-Font (Swisstopo)
Created 2006/2007/2008 by Atelier Ursula Heilig SGD, SVG conversion 2009-05 by Andreas Neumann
</metadata>
<title>Mast - Antenne, character h</title>
<path fill="black" d="M -0.28255317,-9.3707952 L 0.28255318,-9.3707952 L 0.28255318,-2.0042307 C 1.2311245,-1.8629541 1.9778722,-1.0354769 1.9778722,-0.046540646 C 1.9778722,1.0433072 1.089848,1.9313315 2.0000009e-09,1.9313315 C -1.089848,1.9313315 -1.9778722,1.0433072 -1.9778722,-0.046540646 C -1.9778722,-1.0354769 -1.251307,-1.8629541 -0.28255317,-2.0042307 L -0.28255317,-9.3707952 z M -1.4127659,-0.046540646 C -1.4127659,0.7405717 -0.7871124,1.3662251 2.0000009e-09,1.3662251 C 0.78711242,1.3662251 1.4127659,0.7405717 1.4127659,-0.046540646 C 1.4127659,-0.83365316 0.78711242,-1.4593066 2.0000009e-09,-1.4593066 C -0.7871124,-1.4593066 -1.4127659,-0.83365316 -1.4127659,-0.046540646 z" />
</svg>
