<?xml version="1.0" standalone="no"?>
<svg width="100%" height="100%" viewBox="-10 -10 20 20" xmlns="http://www.w3.org/2000/svg">
<metadata>
Taken from Cadastra Symbol-Font (Swisstopo)
Created 2006/2007/2008 by Atelier Ursula Heilig SGD, SVG conversion 2009-05 by Andreas Neumann
</metadata>
<title>Quelle (Wasseraustritt), character i</title>
<path fill="black" d="M -1.1948393,6.616325 L -0.30414087,6.616325 L -0.30414087,2.0759357 C -1.3251854,1.9238652 -2.1289863,1.0331669 -2.1289863,-0.031326234 C -2.1289863,-1.2044413 -1.173115,-2.1603127 4e-08,-2.1603127 C 1.173115,-2.1603127 2.1289863,-1.2044413 2.1289863,-0.031326234 C 2.1289863,1.0331669 1.3469097,1.9238652 0.30414095,2.0759357 L 0.30414095,6.616325 L 1.1948393,6.616325 L 4e-08,10.005324 L -1.1948393,6.616325 z M 1.5207045,-0.031326234 C 1.5207045,-0.87857596 0.8472497,-1.5520308 4e-08,-1.5520308 C -0.84724964,-1.5520308 -1.5207045,-0.87857596 -1.5207045,-0.031326234 C -1.5207045,0.81592347 -0.84724964,1.4893782 4e-08,1.4893782 C 0.8472497,1.4893782 1.5207045,0.81592347 1.5207045,-0.031326234 z" />
</svg>
