<?xml version="1.0" standalone="no"?>
<svg width="100%" height="100%" viewBox="-10 -10 20 20" xmlns="http://www.w3.org/2000/svg">
<metadata>
Taken from Cadastra Symbol-Font (Swisstopo)
Created 2006/2007/2008 by Atelier Ursula Heilig SGD, SVG conversion 2009-05 by Andreas Neumann
</metadata>
<title>Lagefixpunkt 3 auf Kreuz als bedeutsamer Hoheitsgrenzpunkt, character W</title>
<circle fill="white" stroke="none" r="11" />
<path fill="black" stroke="none" d="M -6.825,0 C -6.825,3.7875 -3.7875,6.825 0,6.825 C 3.7875,6.825 6.825,3.7875 6.825,0 C 6.825,-3.7875 3.7875,-6.825 0,-6.825 C -3.7875,-6.825 -6.825,-3.7875 -6.825,0 z M -2.5875,0 C -2.5875,0.525 -2.4375,1.05 -2.1375,1.4625 L -4.425,3.7125 C -5.2875,2.7 -5.775,1.425 -5.775,0 C -5.775,-1.3875 -5.2875,-2.7 -4.4625,-3.675 L -2.175,-1.425 C -2.4375,-1.0125 -2.5875,-0.525 -2.5875,0 z M 0.0375,2.625 C 0.5625,2.625 1.05,2.4375 1.4625,2.175 L 3.7125,4.3875 C 2.7,5.25 1.425,5.775 0,5.775 C -1.425,5.775 -2.7,5.2875 -3.7125,4.425 L -1.425,2.175 C -1.0125,2.4375 -0.525,2.625 0.0375,2.625 z M 0.0375,-2.625 C -0.525,-2.625 -1.0125,-2.4375 -1.425,-2.175 L -3.7125,-4.425 C -2.7,-5.2875 -1.425,-5.775 0,-5.775 C 1.3875,-5.775 2.7,-5.25 3.7125,-4.425 L 1.4625,-2.175 C 1.05,-2.4375 0.5625,-2.625 0.0375,-2.625 z M 2.6625,0 C 2.6625,-0.525 2.475,-1.0125 2.2125,-1.425 L 4.4625,-3.675 C 5.2875,-2.6625 5.775,-1.3875 5.775,0 C 5.775,1.3875 5.2875,2.6625 4.4625,3.675 L 2.2125,1.4625 C 2.475,1.05 2.6625,0.525 2.6625,0 z M -1.5375,0 C -1.5375,-0.8625 -0.825,-1.575 0.0375,-1.575 C 0.9,-1.575 1.6125,-0.8625 1.6125,0 C 1.6125,0.8625 0.9,1.575 0.0375,1.575 C -0.825,1.575 -1.5375,0.8625 -1.5375,0 z M -9.45,0 C -9.45,5.2125 -5.2125,9.45 0,9.45 C 5.2125,9.45 9.45,5.2125 9.45,0 C 9.45,-5.2125 5.2125,-9.45 0,-9.45 C -5.2125,-9.45 -9.45,-5.2125 -9.45,0 z M -8.4,0 C -8.4,-4.6125 -4.6125,-8.4 0,-8.4 C 4.6125,-8.4 8.4,-4.6125 8.4,0 C 8.4,4.6125 4.6125,8.4 0,8.4 C -4.6125,8.4 -8.4,4.6125 -8.4,0 z" />
</svg>
