<?xml version="1.0" standalone="no"?>
<svg width="100%" height="100%" viewBox="-10 -10 20 20" xmlns="http://www.w3.org/2000/svg">
<metadata>
Taken from Cadastra Symbol-Font (Swisstopo)
Created 2006/2007/2008 by Atelier Ursula Heilig SGD, SVG conversion 2009-05 by Andreas Neumann
</metadata>
<title>Lagefixpunkt 3 auf Markstein als bedeutsamer Hoheitsgrenzpunkt, character T</title>
<circle fill="white" stroke="none" r="11" />
<path fill="black" stroke="none" d="M -9.45,0 C -9.45,5.2125 -5.2125,9.45 0,9.45 C 5.2125,9.45 9.45,5.2125 9.45,0 C 9.45,-5.2125 5.2125,-9.45 0,-9.45 C -5.2125,-9.45 -9.45,-5.2125 -9.45,0 z M -8.4,0 C -8.4,-4.6125 -4.6125,-8.4 0,-8.4 C 4.6125,-8.4 8.4,-4.6125 8.4,0 C 8.4,4.6125 4.6125,8.4 0,8.4 C -4.6125,8.4 -8.4,4.6125 -8.4,0 z M -4.2,0 C -4.2,2.325 -2.325,4.2 0,4.2 C 2.325,4.2 4.2,2.325 4.2,0 C 4.2,-2.325 2.325,-4.2 0,-4.2 C -2.325,-4.2 -4.2,-2.325 -4.2,0 z M -3.15,0 C -3.15,-1.725 -1.725,-3.15 0,-3.15 C 1.725,-3.15 3.15,-1.725 3.15,0 C 3.15,1.725 1.725,3.15 0,3.15 C -1.725,3.15 -3.15,1.725 -3.15,0 z M -6.825,0 C -6.825,3.7875 -3.7875,6.825 0,6.825 C 3.7875,6.825 6.825,3.7875 6.825,0 C 6.825,-3.7875 3.7875,-6.825 0,-6.825 C -3.7875,-6.825 -6.825,-3.7875 -6.825,0 z M -5.775,0 C -5.775,-3.1875 -3.1875,-5.775 0,-5.775 C 3.1875,-5.775 5.775,-3.1875 5.775,0 C 5.775,3.1875 3.1875,5.775 0,5.775 C -3.1875,5.775 -5.775,3.1875 -5.775,0 z" />
</svg>
