<?xml version="1.0" standalone="no"?>
<svg width="100%" height="100%" viewBox="-10 -10 20 20" xmlns="http://www.w3.org/2000/svg">
<metadata>
Taken from Cadastra Symbol-Font (Swisstopo)
Created 2006/2007/2008 by Atelier Ursula Heilig SGD, SVG conversion 2009-05 by Andreas Neumann
</metadata>
<title>Bezugspunkt, character q</title>
<path fill="black" d="M -5.775,0 C -5.775,3.1875 -3.1875,5.775 0,5.775 C 3.1875,5.775 5.775,3.1875 5.775,0 C 5.775,-3.1875 3.1875,-5.775 0,-5.775 C -3.1875,-5.775 -5.775,-3.1875 -5.775,0 z M -4.725,0 C -4.725,-2.5875 -2.5875,-4.725 0,-4.725 C 2.5875,-4.725 4.725,-2.5875 4.725,0 C 4.725,2.5875 2.5875,4.725 0,4.725 C -2.5875,4.725 -4.725,2.5875 -4.725,0 z M -8.4,0 C -8.4,4.65 -4.65,8.4 0,8.4 C 4.65,8.4 8.4,4.65 8.4,0 C 8.4,-4.65 4.65,-8.4 0,-8.4 C -4.65,-8.4 -8.4,-4.65 -8.4,0 z M -7.35,0 C -7.35,-4.05 -4.05,-7.35 0,-7.35 C 4.05,-7.35 7.35,-4.05 7.35,0 C 7.35,4.05 4.05,7.35 0,7.35 C -4.05,7.35 -7.35,4.05 -7.35,0 z" />
</svg>
