<?xml version="1.0" standalone="no"?>
<svg width="100%" height="100%" viewBox="-10 -10 20 20" xmlns="http://www.w3.org/2000/svg">
<metadata>
Taken from Cadastra Symbol-Font (Swisstopo)
Created 2006/2007/2008 by Atelier Ursula Heilig SGD, SVG conversion 2009-05 by Andreas Neumann
</metadata>
<title>Höhenfixpunkt 1 und 2, character C</title>
<circle fill="white" stroke="none" r="6" />
<path fill="black" stroke="none" d="M -5.025,0 C -5.025,2.775 -2.775,5.025 0,5.025 C 2.775,5.025 5.025,2.775 5.025,0 C 5.025,-2.775 2.775,-5.025 0,-5.025 C -2.775,-5.025 -5.025,-2.775 -5.025,0 z M -3.975,0 C -3.975,-2.2125 -2.2125,-3.975 0,-3.975 C 2.2125,-3.975 3.975,-2.2125 3.975,0 C 3.975,2.2125 2.2125,3.975 0,3.975 C -2.2125,3.975 -3.975,2.2125 -3.975,0 z M -2.1,0.0375 C -2.1,1.2 -1.1625,2.1375 0,2.1375 C 1.1625,2.1375 2.1,1.2 2.1,0.0375 C 2.1,-1.125 1.1625,-2.0625 0,-2.0625 C -1.1625,-2.0625 -2.1,-1.125 -2.1,0.0375 z" />
</svg>
