<?xml version="1.0" standalone="no"?>
<svg width="100%" height="100%" viewBox="-10 -10 20 20" xmlns="http://www.w3.org/2000/svg">
<metadata>
Taken from Cadastra Symbol-Font (Swisstopo)
Created 2006/2007/2008 by Atelier Ursula Heilig SGD, SVG conversion 2009-05 by Andreas Neumann
</metadata>
<title>Wichtiger Einzelbaum, character o</title>
<path fill="black" d="M 1.280772,0.018039042 C 1.280772,0.73960072 0.70352264,1.280772 0.018039042,1.280772 C -0.70352264,1.280772 -1.280772,0.73960072 -1.280772,0.018039042 C -1.280772,-0.70352264 -0.70352264,-1.280772 0.018039042,-1.280772 C 0.70352264,-1.280772 1.280772,-0.70352264 1.280772,0.018039042 z M 10.119903,2.0384118 C 10.119903,0.77567881 9.434419,-0.3427418 8.4242326,-0.95606923 C 9.0375601,-1.713709 9.3622628,-2.6878173 9.3622628,-3.6980036 C 9.3622628,-6.2234695 7.3418901,-8.2799203 4.8164242,-8.2799203 C 3.878394,-8.2799203 3.01252,-7.9912956 2.2909583,-7.5222805 C 1.3529282,-8.8932477 -0.23450755,-9.8312779 -2.0384118,-9.8312779 C -4.9246585,-9.8312779 -7.305812,-7.4501244 -7.305812,-4.5638776 C -7.305812,-4.275253 -7.2697339,-4.0227064 -7.2336559,-3.7340817 C -8.8932477,-3.3372228 -10.119903,-1.8219432 -10.119903,-0.054117126 C -10.119903,1.6776309 -8.9293258,3.1568324 -7.3418901,3.6258474 C -7.5222805,4.0948625 -7.6305148,4.6360338 -7.6305148,5.1772051 C -7.6305148,7.6305148 -5.6462202,9.5787313 -3.2289885,9.5787313 C -2.146646,9.5787313 -1.1364596,9.1818724 -0.37881988,8.5324669 C 0.41489797,9.3622628 1.5333186,9.8312779 2.7599734,9.8312779 C 5.1772051,9.8312779 7.1614997,7.9191395 7.1975778,5.5019078 C 8.8571696,5.2132831 10.119903,3.7701598 10.119903,2.0384118 z M 8.3520765,-3.6980036 C 8.3520765,-2.4352707 7.6305148,-1.2086158 6.6203284,-0.52313222 C 7.9552175,-0.37881988 9.1097162,0.66744456 9.1097162,2.0384118 C 9.1097162,3.4093789 7.9552175,4.5277996 6.6203284,4.5277996 C 6.439938,4.5277996 6.2595476,4.4917215 6.0791572,4.4556434 C 6.1513133,4.7803461 6.1873914,5.0689708 6.1873914,5.3936736 C 6.1873914,7.2697339 4.6360338,8.8210916 2.7599734,8.8210916 C 1.4250843,8.8210916 0.19842946,8.0634518 -0.30666371,6.9450312 C -1.0643035,7.9552175 -1.9662556,8.568545 -3.2289885,8.568545 C -5.1050489,8.568545 -6.6203284,7.0532654 -6.6203284,5.1772051 C -6.6203284,4.2030968 -6.2234695,3.2650666 -5.4297517,2.579583 C -5.7183763,2.6878173 -6.007001,2.7238953 -6.2956257,2.7238953 C -7.8469833,2.7238953 -9.1097162,1.5333186 -9.1097162,-0.054117126 C -9.1097162,-1.6054747 -7.8469833,-2.8321296 -6.2956257,-2.8321296 C -6.1873914,-2.8321296 -6.0430791,-2.8321296 -5.8987667,-2.7960515 C -6.1513133,-3.3372228 -6.2956257,-3.9866283 -6.2956257,-4.5638776 C -6.2956257,-6.9089531 -4.3834872,-8.8210916 -2.0384118,-8.8210916 C -0.054117126,-8.8210916 1.3168501,-7.5583586 2.0023337,-5.8626887 C 2.6156611,-6.6924846 3.6619255,-7.2697339 4.8164242,-7.2697339 C 6.7646408,-7.2697339 8.3520765,-5.6822982 8.3520765,-3.6980036 z" />
</svg>
