<?xml version="1.0" standalone="no"?>
<svg width="100%" height="100%" viewBox="-10 -10 20 20" xmlns="http://www.w3.org/2000/svg">
<metadata>
Taken from Cadastra Symbol-Font (Swisstopo)
Created 2006/2007/2008 by Atelier Ursula Heilig SGD, SVG conversion 2009-05 by Andreas Neumann
</metadata>
<title>Koordinatenkreuz, character r</title>
<path fill="black" d="M -0.39480938,-9.8702344 L -0.39480938,-1.9176455 C -1.1844281,-1.7766422 -1.8048429,-1.1844281 -1.9740469,-0.39480938 L -9.8702344,-0.39480938 L -9.8702344,0.39480938 L -1.9740469,0.39480938 C -1.8048429,1.1844281 -1.1844281,1.7766422 -0.39480938,1.9176455 L -0.39480938,9.8702344 L 0.39480938,9.8702344 L 0.39480938,1.9176455 C 1.1562275,1.7484415 1.7484415,1.1562275 1.8894449,0.39480938 L 9.8702344,0.39480938 L 9.8702344,-0.39480938 L 1.8894449,-0.39480938 C 1.7484415,-1.1562275 1.1562275,-1.7484415 0.39480938,-1.9176455 L 0.39480938,-9.8702344 L -0.39480938,-9.8702344 z M -1.2126288,-1.7763568e-15 C -1.2126288,-0.64861541 -0.67681608,-1.1844281 -0.02820067,-1.1844281 C 0.62041474,-1.1844281 1.1562275,-0.64861541 1.1562275,-1.7763568e-15 C 1.1562275,0.64861541 0.62041474,1.1844281 -0.02820067,1.1844281 C -0.67681608,1.1844281 -1.2126288,0.64861541 -1.2126288,-1.7763568e-15 z" />
</svg>
