<?xml version="1.0" standalone="no"?>
<svg width="100%" height="100%" viewBox="-10 -10 20 20" xmlns="http://www.w3.org/2000/svg">
<metadata>
Taken from Cadastra Symbol-Font (Swisstopo)
Created 2006/2007/2008 by Atelier Ursula Heilig SGD, SVG conversion 2009-05 by Andreas Neumann
</metadata>
<title>Fixpunkt (fix-point), character B</title>
<circle fill="white" stroke="none" r="11" />
<path fill="black" stroke="none" d="M -2.625,0 C -2.625,-1.4625 -1.4625,-2.625 0,-2.625 C 1.4625,-2.625 2.625,-1.4625 2.625,0 C 2.625,1.4625 1.4625,2.625 0,2.625 C -1.4625,2.625 -2.625,1.4625 -2.625,0 z M -1.575,0 C -1.575,0.8625 -0.8625,1.575 0,1.575 C 0.8625,1.575 1.575,0.8625 1.575,0 C 1.575,-0.8625 0.8625,-1.575 0,-1.575 C -0.8625,-1.575 -1.575,-0.8625 -1.575,0 z M -9.975,0 C -9.975,-5.5125 -5.5125,-9.975 0,-9.975 C 5.5125,-9.975 9.975,-5.5125 9.975,0 C 9.975,5.5125 5.5125,9.975 0,9.975 C -5.5125,9.975 -9.975,5.5125 -9.975,0 z M -6.6,3.7875 L 6.5625,3.7875 L 0,-7.6125 L -6.6,3.7875 z M 0,8.925 C 3.15,8.925 5.925,7.275 7.5,4.8375 L -7.5375,4.8375 C -5.9625,7.275 -3.1875,8.925 0,8.925 z M -8.925,0 C -8.925,1.4625 -8.5875,2.85 -7.95,4.05 L -0.4875,-8.925 C -5.2125,-8.6625 -8.925,-4.8 -8.925,0 z M 8.925,0 C 8.925,-4.8 5.175,-8.6625 0.45,-8.925 L 7.95,4.05 C 8.55,2.85 8.925,1.4625 8.925,0 z" />
</svg>
