<?xml version="1.0" standalone="no"?>
<svg width="100%" height="100%" viewBox="-10 -10 20 20" xmlns="http://www.w3.org/2000/svg">
<metadata>
Taken from Cadastra Symbol-Font (Swisstopo)
Created 2006/2007/2008 by Atelier Ursula Heilig SGD, SVG conversion 2009-05 by Andreas Neumann
</metadata>
<title>Einzelner Fels, character g</title>
<path fill="black" d="M 7.7783449,-7.1207376 L 9.7665317,-3.7373319 L 9.417727,-3.4931687 C 7.3946597,-1.958428 4.9879073,2.5062723 4.9530268,2.5411527 L 4.7786244,2.8899574 L 4.3949393,2.7504355 C 3.6275689,2.5062723 2.8601986,2.4016308 2.0928282,2.4016308 C 0.03488049,2.4016308 -1.709143,3.1341207 -1.7440235,3.1690012 L -6.0343214,3.1690012 L -9.7665317,0.099519798 L -8.3713129,-3.1094835 L -8.1271496,-3.144364 C -8.0922691,-3.144364 -5.1623096,-3.7024515 -0.94177268,-6.4928891 C 0.24416331,-7.2602595 1.4300993,-8.934522 1.4649798,-8.934522 L 1.6393821,-9.2135658 L 7.7783449,-7.1207376 z M -0.41856562,-5.6557578 C -3.3136447,-3.7722124 -5.6157557,-2.8653202 -6.8714527,-2.481635 L -4.6042221,-1.295699 L -2.3369915,-1.295699 C -1.9184259,-1.6096232 -0.66272892,-2.481635 0.87201178,-2.481635 C 2.1625892,-2.481635 3.2438837,-2.3072327 3.7322103,-2.2025913 L 6.8365722,-6.4231282 L 1.9881868,-8.0973907 C 1.5696212,-7.5393032 0.59296802,-6.3184868 -0.41856562,-5.6557578 z M -4.3949393,-0.3190458 L -5.2320706,2.192348 L -2.4067525,2.192348 L -2.5113939,-0.3190458 L -4.3949393,-0.3190458 z M -7.8481058,-1.888667 C -8.0922691,-1.4003404 -8.4410738,-0.5632091 -8.6154762,-0.2144044 C -8.2666715,0.099519798 -6.8016917,1.2854558 -6.1040823,1.8435433 L -5.3018315,-0.5632091 L -7.8481058,-1.888667 z M -1.4998602,2.0179457 C -0.76737033,1.8086628 0.55808755,1.4249777 2.0928282,1.4249777 C 2.6509157,1.4249777 3.2438837,1.4947386 3.8368517,1.59938 L 3.488047,-1.2608185 C 3.0346009,-1.295699 2.0928282,-1.5049818 0.9417727,-1.5049818 C -0.17440233,-1.5049818 -1.1161751,-0.9817748 -1.4998602,-0.6678505 L -1.4998602,2.0179457 z M 4.7088635,1.0412925 C 5.5111143,-0.3190458 7.045855,-2.6909178 8.5108348,-3.9814952 L 7.4993011,-5.7603992 L 4.3949393,-1.5398623 L 4.7088635,1.0412925 z" />
</svg>
