<?xml version="1.0" standalone="no"?>
<svg width="100%" height="100%" viewBox="-10 -10 20 20" xmlns="http://www.w3.org/2000/svg">
<metadata>
Taken from Cadastra Symbol-Font (Swisstopo)
Created 2006/2007/2008 by Atelier Ursula Heilig SGD, SVG conversion 2009-05 by Andreas Neumann
</metadata>
<title>Hoheitsgrenzstein auf Markstein oder Kunststoffzeichen, character R</title>
<path fill="black" d="M -9.45,0 C -9.45,5.2125 -5.2125,9.45 0,9.45 C 5.2125,9.45 9.45,5.2125 9.45,0 C 9.45,-5.2125 5.2125,-9.45 0,-9.45 C -5.2125,-9.45 -9.45,-5.2125 -9.45,0 z M -8.4,0 C -8.4,-4.6125 -4.6125,-8.4 0,-8.4 C 4.6125,-8.4 8.4,-4.6125 8.4,0 C 8.4,4.6125 4.6125,8.4 0,8.4 C -4.6125,8.4 -8.4,4.6125 -8.4,0 z M -2.625,0 C -2.625,1.4625 -1.4625,2.625 0,2.625 C 1.4625,2.625 2.625,1.4625 2.625,0 C 2.625,-1.4625 1.4625,-2.625 0,-2.625 C -1.4625,-2.625 -2.625,-1.4625 -2.625,0 z M -1.575,0 C -1.575,-0.8625 -0.8625,-1.575 0,-1.575 C 0.8625,-1.575 1.575,-0.8625 1.575,0 C 1.575,0.8625 0.8625,1.575 0,1.575 C -0.8625,1.575 -1.575,0.8625 -1.575,0 z" />
</svg>
