<?xml version="1.0" standalone="no"?>
<svg width="100%" height="100%" viewBox="-10 -10 20 20" xmlns="http://www.w3.org/2000/svg">
<metadata>
Taken from Cadastra Symbol-Font (Swisstopo)
Created 2006/2007/2008 by Atelier Ursula Heilig SGD, SVG conversion 2009-05 by Andreas Neumann
</metadata>
<title>Fels/Geröll, character 1</title>
<path fill="black" d="M -2.3049591,6.6696687 L -1.7556922,6.6696687 C -1.7556922,4.9630182 -2.2068757,4.7276181 -2.2068757,3.8448679 C -2.2068757,2.8051842 -1.7556922,2.2951507 -1.7556922,1.137767 L -2.3049591,1.137767 C -2.3049591,2.1774507 -2.7561425,2.6874842 -2.7561425,3.8448679 C -2.7561425,4.8257015 -2.3049591,4.9826349 -2.3049591,6.6696687 z M -2.7561425,-3.1582843 L -2.2068757,-3.1582843 C -2.2068757,-4.8649348 -1.7556922,-4.9630182 -1.7556922,-6.1007852 C -1.7556922,-7.1404689 -2.2068757,-7.611269 -2.2068757,-8.690186 L -2.7561425,-8.690186 C -2.7561425,-7.552419 -2.3049591,-7.0620022 -2.3049591,-6.0811686 C -2.3049591,-5.1591849 -2.7561425,-4.9434015 -2.7561425,-3.1582843 z M -2.3245757,7.8662858 L -1.3633588,8.0624525 L -1.2652754,8.6705694 L -1.5791422,9.2394529 L -2.3245757,9.651403 L -3.0307759,9.3179196 L -3.2465593,8.6705694 L -3.148476,7.9447525 L -2.3245757,7.8662858 z M -1.3241254,-0.4315668 L -1.1868087,-1.8635839 L -2.3441924,-1.9420506 L -2.9130759,-1.6478005 L -3.325026,-0.88275027 L -2.9719259,-0.17655005 L -2.2657257,-0.078466691 L -1.3633588,-0.078466691 L -1.3241254,-0.4315668 z M 1.7556922,-1.1573837 L 2.3049591,-1.1573837 C 2.3049591,-2.216684 2.7365259,-2.7463342 2.7561425,-3.8841012 C 2.7561425,-4.8453182 2.3049591,-5.0022516 2.3049591,-6.6892854 L 1.7556922,-6.6892854 C 1.7556922,-5.0022516 2.2068757,-4.7472348 2.2068757,-3.8841012 C 2.2068757,-2.8248009 1.7556922,-2.3147674 1.7556922,-1.1573837 z M 2.2068757,8.6509527 L 2.7561425,8.6509527 C 2.7561425,7.4739523 2.3049591,7.0031522 2.3049591,5.9438518 C 2.3049591,5.0807182 2.7561425,4.8649348 2.7561425,3.119051 L 2.2068757,3.119051 C 2.2068757,4.8257015 1.7556922,4.9237849 1.7556922,5.9634685 C 1.7556922,7.1012355 2.2068757,7.5916524 2.2068757,8.6509527 z M 2.3245757,-7.9055191 L 1.3633588,-8.0820692 L 1.2652754,-8.690186 L 1.5791422,-9.2590695 L 2.3245757,-9.6906363 L 3.325026,-9.6906363 L 3.7173595,-8.9255861 L 3.148476,-7.9643691 L 2.3245757,-7.9055191 z M 1.3241254,0.41195013 L 1.1868087,1.8439672 L 2.3441924,1.9224339 L 2.9130759,1.6085672 L 3.325026,0.8631336 L 2.9719259,0.15693338 L 1.3633588,0.039233346 L 1.3241254,0.41195013 z M -6.7383271,9.6906363 L -6.1890603,9.6906363 C -6.1890603,8.7686527 -6.9541105,8.3567026 -6.9541105,7.434719 C -6.9541105,6.5127354 -6.2479103,6.296952 -6.2479103,5.1199516 L -6.7971771,5.1199516 C -6.7971771,6.1007852 -7.5033773,6.3361853 -7.5033773,7.434719 C -7.5033773,8.5332527 -6.7383271,8.9844361 -6.7383271,9.6906363 z M -7.5033773,-0.078466691 L -6.9541105,-0.078466691 C -6.9541105,-0.78466691 -6.1890603,-1.2554671 -6.1890603,-2.3343841 C -6.1890603,-3.4329177 -6.8952605,-3.6683178 -6.8952605,-4.6491514 L -7.4445273,-4.6491514 C -7.4445273,-3.4721511 -6.7383271,-3.2563677 -6.7383271,-2.3343841 C -6.7383271,-1.4124004 -7.5033773,-1.0004503 -7.5033773,-0.078466691 z M -7.9349441,2.1186007 L -7.9937942,3.1582843 L -7.8368608,3.6290845 L -6.8364105,3.4917678 L -5.7182601,2.7855675 L -5.8359601,1.9028173 L -6.3067603,1.4320171 L -7.2875939,1.5104838 L -7.9349441,2.1186007 z M -5.8555768,-8.1605359 L -5.7182601,-6.6500521 L -6.385227,-6.2381019 L -7.3268273,-6.1400186 L -7.9937942,-7.0227689 L -7.8760941,-7.9055191 L -7.9937942,-8.3763193 L -5.8555768,-8.1605359 z M 6.2479103,-3.8056345 L 6.7971771,-3.8056345 L 6.7971771,-3.8448679 C 6.7971771,-4.7864682 7.5033773,-5.0414849 7.5033773,-6.1204019 C 7.5033773,-7.2581689 6.7383271,-7.6701191 6.7383271,-8.3763193 L 6.1890603,-8.3763193 C 6.1890603,-7.4739523 6.9541105,-7.0620022 6.9541105,-6.1204019 C 6.9541105,-5.218035 6.2479103,-4.9826349 6.2479103,-3.8056345 z M 6.8952605,5.9634685 L 7.4445273,5.9634685 C 7.4445273,4.7864682 6.7383271,4.5510681 6.7383271,3.6487011 C 6.7383271,2.7071008 7.5033773,2.2951507 7.5033773,1.3927838 L 6.9541105,1.3927838 C 6.9541105,2.098984 6.1890603,2.5305508 6.1890603,3.6487011 C 6.1890603,4.7472348 6.8952605,5.0022516 6.8952605,5.9634685 z M 7.9349441,-0.80428358 L 7.9937942,-1.8439672 L 7.8368608,-2.3147674 L 6.8364105,-2.1774507 L 5.7182601,-1.4712505 L 5.8359601,-0.58850018 L 6.3067603,-0.11770004 L 7.2875939,-0.19616673 L 7.9349441,-0.80428358 z M 5.8359601,8.9648195 L 5.7182601,7.9643691 L 6.1498269,7.0620022 L 7.3268273,7.4543357 L 7.9937942,8.3370859 L 7.6799274,8.7098027 L 7.2091272,9.1806029 L 5.8359601,8.9648195 z" />
</svg>
