<?xml version="1.0" encoding="UTF-8" standalone="no"?>
<svg id="svg2" xmlns:rdf="http://www.w3.org/1999/02/22-rdf-syntax-ns#" xmlns="http://www.w3.org/2000/svg" viewBox="0 0 100 100" width="100%" height="100%" version="1.1" xmlns:cc="http://creativecommons.org/ns#" xmlns:dc="http://purl.org/dc/elements/1.1/">
 <title>Übrige Bestockte Flächen</title>
 <metadata>
  <rdf:RDF>
   <cc:Work rdf:about="">
    <dc:format>image/svg+xml</dc:format>
    <dc:type rdf:resource="http://purl.org/dc/dcmitype/StillImage"/>
    <dc:title>Landwirtschaftszone kommunal</dc:title>
    <dc:date>2011-03-04</dc:date>
    <dc:creator>
     <cc:Agent>
      <dc:title>Andreas Neumann</dc:title>
     </cc:Agent>
    </dc:creator>
    <dc:subject>
     <rdf:Bag>
      <rdf:li>Amtliche Vermessung / Surveying</rdf:li>
     </rdf:Bag>
    </dc:subject>
    <cc:license rdf:resource="http://creativecommons.org/licenses/publicdomain/"/>
   </cc:Work>
   <cc:License rdf:about="http://creativecommons.org/licenses/publicdomain/">
    <cc:permits rdf:resource="http://creativecommons.org/ns#Reproduction"/>
    <cc:permits rdf:resource="http://creativecommons.org/ns#Distribution"/>
    <cc:permits rdf:resource="http://creativecommons.org/ns#DerivativeWorks"/>
   </cc:License>
  </rdf:RDF>
 </metadata>
 <g fill="black" stroke="none">
  <circle r="0.6" cx="5" cy="10" />
  <circle r="0.6" cx="25" cy="10" />
  <circle r="0.6" cx="45" cy="10" />
  <circle r="0.6" cx="65" cy="10" />
  <circle r="0.6" cx="85" cy="10" />
  <!-- next row -->
  <circle r="0.6" cx="15" cy="30" />
  <circle r="0.6" cx="35" cy="30" />
  <circle r="0.6" cx="55" cy="30" />
  <circle r="0.6" cx="75" cy="30" />
  <circle r="0.6" cx="95" cy="30" />
  <!-- next row -->
  <circle r="0.6" cx="5" cy="50" />
  <circle r="0.6" cx="25" cy="50" />
  <circle r="0.6" cx="45" cy="50" />
  <circle r="0.6" cx="65" cy="50" />
  <circle r="0.6" cx="85" cy="50" />
  <!-- next row -->
  <circle r="0.6" cx="15" cy="70" />
  <circle r="0.6" cx="35" cy="70" />
  <circle r="0.6" cx="55" cy="70" />
  <circle r="0.6" cx="75" cy="70" />
  <circle r="0.6" cx="95" cy="70" />
  <!-- next row -->
  <circle r="0.6" cx="5" cy="90" />
  <circle r="0.6" cx="25" cy="90" />
  <circle r="0.6" cx="45" cy="90" />
  <circle r="0.6" cx="65" cy="90" />
  <circle r="0.6" cx="85" cy="90" />
 </g>
</svg>