<?xml version="1.0" encoding="UTF-8" standalone="no"?>
<!-- Created with Inkscape (http://www.inkscape.org/) -->

<svg
   xmlns:dc="http://purl.org/dc/elements/1.1/"
   xmlns:cc="http://creativecommons.org/ns#"
   xmlns:rdf="http://www.w3.org/1999/02/22-rdf-syntax-ns#"
   xmlns:svg="http://www.w3.org/2000/svg"
   xmlns="http://www.w3.org/2000/svg"
   version="1.0"
   width="8.28125"
   height="8.28125"
   id="svg2">
  <defs
     id="defs4" />
  <metadata
     id="metadata7">
    <rdf:RDF>
      <cc:Work
         rdf:about="">
        <dc:format>image/svg+xml</dc:format>
        <dc:type
           rdf:resource="http://purl.org/dc/dcmitype/StillImage" />
        <dc:title></dc:title>
      </cc:Work>
    </rdf:RDF>
  </metadata>
  <g
     transform="translate(-327.0625,-575.15625)"
     id="layer1">
    <rect
       width="30"
       height="30"
       ry="0"
       x="430"
       y="550"
       id="rect1882"
       style="fill:#ffffff;fill-opacity:1;stroke:#ffffff;stroke-width:1;stroke-linecap:round;stroke-linejoin:miter;stroke-miterlimit:4;stroke-opacity:1;stroke-dasharray:none" />
    <path
       d="m 478.93858,568.56226 a 1.4520943,1.4520943 0 1 1 -2.90419,0 1.4520943,1.4520943 0 1 1 2.90419,0 z"
       transform="matrix(1.608696,0,0,1.608696,-330.6341,-357.2823)"
       id="path1884"
       style="fill:#000000;fill-opacity:1;stroke:none" />
    <path
       d="m 478.93858,568.56226 a 1.4520943,1.4520943 0 1 1 -2.90419,0 1.4520943,1.4520943 0 1 1 2.90419,0 z"
       transform="matrix(1.608696,0,0,1.608696,-315.6297,-342.2777)"
       id="path2772"
       style="fill:#000000;fill-opacity:1;stroke:none" />
    <rect
       width="8.0047436"
       height="8.0047436"
       ry="0"
       x="327.19272"
       y="575.30255"
       id="rect1882-5"
       style="fill:#ffffff;fill-opacity:1;stroke:#ffffff;stroke-width:1.20000005;stroke-linecap:round;stroke-linejoin:miter;stroke-miterlimit:4;stroke-opacity:1;stroke-dasharray:none" />
    <path
       d="m 478.93858,568.56226 a 1.4520943,1.4520943 0 1 1 -2.90419,0 1.4520943,1.4520943 0 1 1 2.90419,0 z"
       transform="matrix(0.42923994,0,0,0.42923994,124.23669,333.21714)"
       id="path1884-9"
       style="fill:#000000;fill-opacity:1;stroke:#ffffff;stroke-opacity:1" />
    <path
       d="m 478.93858,568.56226 a 1.4520943,1.4520943 0 1 1 -2.90419,0 1.4520943,1.4520943 0 1 1 2.90419,0 z"
       transform="matrix(0.42923994,0,0,0.42923994,128.24024,337.22074)"
       id="path2772-6"
       style="fill:#000000;fill-opacity:1;stroke:#ffffff;stroke-opacity:1" />
  </g>
</svg>
